STARTFONT 2.1
COMMENT $XConsortium: luBS18.bdf,v 1.7 94/04/02 15:59:36 gildea Exp $
COMMENT  (c) Copyright Bigelow & Holmes 1986, 1985. Lucida is a registered
COMMENT  trademark of Bigelow & Holmes. See LEGAL NOTICE file for terms 
COMMENT  of the license. 
COMMENT GRID 0018 0018 0200 0200
COMMENT  
COMMENT  Translation to ISO8859-2 by Cub Soft;  Petr.Kolar@vslib.cz
COMMENT  
FONT -B&H-Lucida-Bold-R-Normal-Sans-18-180-75-75-P-120-ISO8859-2
SIZE 18 72 72
FONTBOUNDINGBOX 26 19 -1 -3
STARTPROPERTIES 20
COMMENT Begin LogicalFontDescription
FONTNAME_REGISTRY ""
FOUNDRY "B&H"
FAMILY_NAME "Lucida"
WEIGHT_NAME "Bold"
SLANT "R"
SETWIDTH_NAME "Normal"
ADD_STYLE_NAME "Sans"
PIXEL_SIZE 18
POINT_SIZE 180
RESOLUTION_X 75
RESOLUTION_Y 75
SPACING "P"
AVERAGE_WIDTH 120
CHARSET_REGISTRY "ISO8859"
CHARSET_ENCODING "2"
COMMENT END LogicalFontDescription
FONT_ASCENT 16
FONT_DESCENT 3
DEFAULT_CHAR 0
COPYRIGHT "Copyright Bigelow & Holmes 1986, 1985., Copyright 1996 Cub Soft"
FACE_NAME "Lucida Sans Bold"
ENDPROPERTIES
CHARS 191
STARTCHAR space
ENCODING 32
SWIDTH 343 0
DWIDTH 5 0
BBX 1 1 0 0
BITMAP
00
ENDCHAR
STARTCHAR exclam
ENCODING 33
SWIDTH 265 0
DWIDTH 5 0
BBX 3 13 1 0
BITMAP
e0
e0
e0
e0
e0
60
40
40
00
00
e0
e0
e0
ENDCHAR
STARTCHAR quotedbl
ENCODING 34
SWIDTH 530 0
DWIDTH 10 0
BBX 8 5 1 9
BITMAP
e7
e7
c6
c6
84
ENDCHAR
STARTCHAR numbersign
ENCODING 35
SWIDTH 687 0
DWIDTH 13 0
BBX 10 13 2 0
BITMAP
1980
1980
1980
7fc0
7fc0
3300
3300
ff80
ff80
6600
6600
6600
6600
ENDCHAR
STARTCHAR dollar
ENCODING 36
SWIDTH 687 0
DWIDTH 13 0
BBX 9 17 2 -2
BITMAP
0c00
0c00
3f00
7f80
e580
e400
f400
7c00
3e00
1f00
1780
1380
d380
ff00
7e00
1800
1800
ENDCHAR
STARTCHAR percent
ENCODING 37
SWIDTH 898 0
DWIDTH 17 0
BBX 16 13 1 0
BITMAP
3806
7c0c
ee18
c630
ee60
7cc0
399c
033e
0677
0c63
1877
303e
601c
ENDCHAR
STARTCHAR ampersand
ENCODING 38
SWIDTH 792 0
DWIDTH 15 0
BBX 13 13 1 0
BITMAP
0f00
1f80
39c0
39c0
1d80
1f18
7e18
e738
e3b0
e3e0
f1e0
7ff8
1f78
ENDCHAR
STARTCHAR apostrophe
ENCODING 39
SWIDTH 265 0
DWIDTH 5 0
BBX 3 5 1 9
BITMAP
e0
e0
e0
60
c0
ENDCHAR
STARTCHAR parenleft
ENCODING 40
SWIDTH 386 0
DWIDTH 7 0
BBX 5 16 2 -2
BITMAP
18
38
30
70
60
e0
e0
e0
e0
e0
e0
60
70
30
38
18
ENDCHAR
STARTCHAR parenright
ENCODING 41
SWIDTH 386 0
DWIDTH 7 0
BBX 5 16 0 -2
BITMAP
c0
e0
60
70
30
38
38
38
38
38
38
30
70
60
e0
c0
ENDCHAR
STARTCHAR asterisk
ENCODING 42
SWIDTH 464 0
DWIDTH 9 0
BBX 8 7 1 6
BITMAP
18
18
db
e7
18
66
66
ENDCHAR
STARTCHAR plus
ENCODING 43
SWIDTH 687 0
DWIDTH 13 0
BBX 10 10 2 1
BITMAP
0c00
0c00
0c00
0c00
ffc0
ffc0
0c00
0c00
0c00
0c00
ENDCHAR
STARTCHAR comma
ENCODING 44
SWIDTH 343 0
DWIDTH 5 0
BBX 3 5 1 -2
BITMAP
e0
e0
e0
60
c0
ENDCHAR
STARTCHAR minus
ENCODING 45
SWIDTH 687 0
DWIDTH 13 0
BBX 10 2 2 5
BITMAP
ffc0
ffc0
ENDCHAR
STARTCHAR period
ENCODING 46
SWIDTH 343 0
DWIDTH 5 0
BBX 3 3 1 0
BITMAP
e0
e0
e0
ENDCHAR
STARTCHAR slash
ENCODING 47
SWIDTH 596 0
DWIDTH 11 0
BBX 11 16 0 -2
BITMAP
00e0
00e0
01c0
01c0
0380
0700
0700
0e00
0e00
1c00
1c00
3800
7000
7000
e000
e000
ENDCHAR
STARTCHAR zero
ENCODING 48
SWIDTH 687 0
DWIDTH 13 0
BBX 11 13 1 0
BITMAP
1f00
7fc0
71c0
e0e0
e0e0
e0e0
e0e0
e0e0
e0e0
e0e0
71c0
7fc0
1f00
ENDCHAR
STARTCHAR one
ENCODING 49
SWIDTH 687 0
DWIDTH 13 0
BBX 5 13 3 0
BITMAP
18
f8
f8
38
38
38
38
38
38
38
38
38
38
ENDCHAR
STARTCHAR two
ENCODING 50
SWIDTH 687 0
DWIDTH 13 0
BBX 9 13 2 0
BITMAP
7e00
ff00
c380
0380
0380
0700
1e00
3c00
7000
e000
ff80
ff80
ff80
ENDCHAR
STARTCHAR three
ENCODING 51
SWIDTH 687 0
DWIDTH 13 0
BBX 9 13 2 0
BITMAP
7e00
ff00
c380
0380
0700
3c00
3e00
0700
0380
0380
c780
ff00
7c00
ENDCHAR
STARTCHAR four
ENCODING 52
SWIDTH 687 0
DWIDTH 13 0
BBX 11 13 1 0
BITMAP
0380
0780
0f80
1b80
3380
6380
c380
ffe0
ffe0
0380
0380
0380
0380
ENDCHAR
STARTCHAR five
ENCODING 53
SWIDTH 687 0
DWIDTH 13 0
BBX 9 13 2 0
BITMAP
ff80
ff80
ff80
c000
c000
fc00
ff00
0f80
0380
0380
c380
ff00
7c00
ENDCHAR
STARTCHAR six
ENCODING 54
SWIDTH 687 0
DWIDTH 13 0
BBX 10 13 2 0
BITMAP
1f00
7f80
6180
e000
ef00
ff80
f3c0
e1c0
e1c0
e1c0
71c0
7f80
1f00
ENDCHAR
STARTCHAR seven
ENCODING 55
SWIDTH 687 0
DWIDTH 13 0
BBX 10 13 2 0
BITMAP
ffc0
ffc0
ffc0
01c0
0380
0700
0e00
1c00
3800
3800
7000
7000
7000
ENDCHAR
STARTCHAR eight
ENCODING 56
SWIDTH 687 0
DWIDTH 13 0
BBX 10 13 2 0
BITMAP
3f00
7f80
e1c0
e1c0
f180
7e00
3f00
6f80
e3c0
e1c0
e1c0
7f80
3f00
ENDCHAR
STARTCHAR nine
ENCODING 57
SWIDTH 687 0
DWIDTH 13 0
BBX 10 13 2 0
BITMAP
3e00
7f80
e380
e1c0
e1c0
e1c0
f3c0
7fc0
3dc0
01c0
6180
7f80
3e00
ENDCHAR
STARTCHAR colon
ENCODING 58
SWIDTH 343 0
DWIDTH 5 0
BBX 3 10 1 0
BITMAP
e0
e0
e0
00
00
00
00
e0
e0
e0
ENDCHAR
STARTCHAR semicolon
ENCODING 59
SWIDTH 343 0
DWIDTH 5 0
BBX 3 12 1 -2
BITMAP
e0
e0
e0
00
00
00
00
e0
e0
e0
60
c0
ENDCHAR
STARTCHAR less
ENCODING 60
SWIDTH 687 0
DWIDTH 13 0
BBX 10 10 1 1
BITMAP
00c0
03c0
0f00
3c00
f000
f000
3c00
0f00
03c0
00c0
ENDCHAR
STARTCHAR equal
ENCODING 61
SWIDTH 687 0
DWIDTH 13 0
BBX 10 6 2 3
BITMAP
ffc0
ffc0
0000
0000
ffc0
ffc0
ENDCHAR
STARTCHAR greater
ENCODING 62
SWIDTH 687 0
DWIDTH 13 0
BBX 10 10 2 1
BITMAP
c000
f000
3c00
0f00
03c0
03c0
0f00
3c00
f000
c000
ENDCHAR
STARTCHAR question
ENCODING 63
SWIDTH 572 0
DWIDTH 11 0
BBX 9 13 1 0
BITMAP
7e00
ff00
c380
0380
0700
1e00
3800
3000
0000
0000
3800
3800
3800
ENDCHAR
STARTCHAR at
ENCODING 64
SWIDTH 833 0
DWIDTH 16 0
BBX 14 13 1 0
BITMAP
0fe0
3ff8
7018
67cc
cccc
d8cc
d98c
db8c
dd98
c9f0
6000
7fc0
1f80
ENDCHAR
STARTCHAR A
ENCODING 65
SWIDTH 773 0
DWIDTH 14 0
BBX 13 13 1 0
BITMAP
0700
0700
0f80
0f80
19c0
19c0
30e0
3fe0
7ff0
7070
6070
e038
e038
ENDCHAR
STARTCHAR B
ENCODING 66
SWIDTH 669 0
DWIDTH 13 0
BBX 10 13 2 0
BITMAP
ff00
ff80
e380
e380
e300
fe00
ff00
e380
e1c0
e1c0
e3c0
ff80
fe00
ENDCHAR
STARTCHAR C
ENCODING 67
SWIDTH 726 0
DWIDTH 14 0
BBX 12 13 1 0
BITMAP
0fe0
3ff0
7830
7000
e000
e000
e000
e000
f000
7000
7c30
3ff0
0fc0
ENDCHAR
STARTCHAR D
ENCODING 68
SWIDTH 819 0
DWIDTH 15 0
BBX 12 13 2 0
BITMAP
ff00
ffc0
e1e0
e0e0
e070
e070
e070
e070
e070
e0e0
e1e0
ffc0
ff00
ENDCHAR
STARTCHAR E
ENCODING 69
SWIDTH 645 0
DWIDTH 12 0
BBX 9 13 2 0
BITMAP
ff80
ff80
e000
e000
e000
ff00
ff00
e000
e000
e000
e000
ff80
ff80
ENDCHAR
STARTCHAR F
ENCODING 70
SWIDTH 602 0
DWIDTH 11 0
BBX 9 13 2 0
BITMAP
ff80
ff80
e000
e000
e000
ff00
ff00
e000
e000
e000
e000
e000
e000
ENDCHAR
STARTCHAR G
ENCODING 71
SWIDTH 759 0
DWIDTH 14 0
BBX 12 13 1 0
BITMAP
0fe0
3ff0
7830
7000
e000
e000
e000
e070
f070
7070
7c70
3ff0
0ff0
ENDCHAR
STARTCHAR H
ENCODING 72
SWIDTH 813 0
DWIDTH 15 0
BBX 11 13 2 0
BITMAP
e0e0
e0e0
e0e0
e0e0
e0e0
ffe0
ffe0
e0e0
e0e0
e0e0
e0e0
e0e0
e0e0
ENDCHAR
STARTCHAR I
ENCODING 73
SWIDTH 361 0
DWIDTH 7 0
BBX 3 13 2 0
BITMAP
e0
e0
e0
e0
e0
e0
e0
e0
e0
e0
e0
e0
e0
ENDCHAR
STARTCHAR J
ENCODING 74
SWIDTH 501 0
DWIDTH 9 0
BBX 7 15 0 -2
BITMAP
0e
0e
0e
0e
0e
0e
0e
0e
0e
0e
0e
0e
1c
fc
f0
ENDCHAR
STARTCHAR K
ENCODING 75
SWIDTH 753 0
DWIDTH 14 0
BBX 11 13 2 0
BITMAP
e0c0
e1c0
e380
e700
ee00
f800
f800
fc00
ef00
e780
e3c0
e1e0
e0e0
ENDCHAR
STARTCHAR L
ENCODING 76
SWIDTH 620 0
DWIDTH 11 0
BBX 9 13 2 0
BITMAP
e000
e000
e000
e000
e000
e000
e000
e000
e000
e000
e000
ff80
ff80
ENDCHAR
STARTCHAR M
ENCODING 77
SWIDTH 940 0
DWIDTH 18 0
BBX 14 13 2 0
BITMAP
e01c
f03c
f03c
f87c
f87c
dcdc
dcdc
dc9c
cf9c
cf9c
c71c
c71c
c01c
ENDCHAR
STARTCHAR N
ENCODING 78
SWIDTH 783 0
DWIDTH 14 0
BBX 10 13 2 0
BITMAP
e0c0
e0c0
f0c0
f8c0
f8c0
dcc0
cec0
cec0
c7c0
c3c0
c3c0
c1c0
c0c0
ENDCHAR
STARTCHAR O
ENCODING 79
SWIDTH 855 0
DWIDTH 16 0
BBX 14 13 1 0
BITMAP
0fc0
3ff0
7878
7038
e01c
e01c
e01c
e01c
e01c
7038
7878
3ff0
0fc0
ENDCHAR
STARTCHAR P
ENCODING 80
SWIDTH 657 0
DWIDTH 13 0
BBX 10 13 2 0
BITMAP
ff00
ff80
e3c0
e1c0
e1c0
e380
ff80
fe00
e000
e000
e000
e000
e000
ENDCHAR
STARTCHAR Q
ENCODING 81
SWIDTH 855 0
DWIDTH 16 0
BBX 15 15 1 -2
BITMAP
0fc0
3ff0
7878
7038
e01c
e01c
e01c
e01c
e01c
7038
7878
3ff0
0fc0
00fe
003e
ENDCHAR
STARTCHAR R
ENCODING 82
SWIDTH 734 0
DWIDTH 13 0
BBX 10 13 2 0
BITMAP
ff00
ff80
e3c0
e1c0
e1c0
e380
fe00
ff00
e700
e380
e3c0
e1c0
e1c0
ENDCHAR
STARTCHAR S
ENCODING 83
SWIDTH 594 0
DWIDTH 11 0
BBX 9 13 1 0
BITMAP
3f00
7f80
e180
e000
f800
fe00
7f00
1f80
0780
0380
c380
ff00
7e00
ENDCHAR
STARTCHAR T
ENCODING 84
SWIDTH 735 0
DWIDTH 14 0
BBX 13 13 1 0
BITMAP
fff8
fff8
0700
0700
0700
0700
0700
0700
0700
0700
0700
0700
0700
ENDCHAR
STARTCHAR U
ENCODING 85
SWIDTH 783 0
DWIDTH 15 0
BBX 11 13 2 0
BITMAP
e0e0
e0e0
e0e0
e0e0
e0e0
e0e0
e0e0
e0e0
e0e0
e0e0
71c0
7fc0
1f00
ENDCHAR
STARTCHAR V
ENCODING 86
SWIDTH 735 0
DWIDTH 14 0
BBX 13 13 1 0
BITMAP
e038
e038
7030
7070
7060
3860
38e0
1cc0
1cc0
0f80
0f80
0700
0700
ENDCHAR
STARTCHAR W
ENCODING 87
SWIDTH 940 0
DWIDTH 18 0
BBX 16 13 1 0
BITMAP
e007
e187
e187
e187
e1c7
73c6
73c6
73ee
366c
3e7c
3e7c
1c38
1c38
ENDCHAR
STARTCHAR X
ENCODING 88
SWIDTH 699 0
DWIDTH 13 0
BBX 11 13 1 0
BITMAP
e060
f0e0
71c0
7980
3b80
1f00
1e00
1f00
3f80
7380
63c0
e1e0
c0e0
ENDCHAR
STARTCHAR Y
ENCODING 89
SWIDTH 738 0
DWIDTH 13 0
BBX 11 13 1 0
BITMAP
e0e0
e0e0
70c0
71c0
3980
3980
1f00
0e00
0e00
0e00
0e00
0e00
0e00
ENDCHAR
STARTCHAR Z
ENCODING 90
SWIDTH 675 0
DWIDTH 12 0
BBX 10 13 1 0
BITMAP
ffc0
ffc0
03c0
0780
0f00
0f00
1e00
3c00
3c00
7800
f000
ffc0
ffc0
ENDCHAR
STARTCHAR bracketleft
ENCODING 91
SWIDTH 386 0
DWIDTH 7 0
BBX 5 16 2 -2
BITMAP
f8
f8
e0
e0
e0
e0
e0
e0
e0
e0
e0
e0
e0
e0
f8
f8
ENDCHAR
STARTCHAR backslash
ENCODING 92
SWIDTH 596 0
DWIDTH 11 0
BBX 11 16 0 -2
BITMAP
e000
e000
7000
7000
3800
1c00
1c00
0e00
0e00
0700
0700
0380
01c0
01c0
00e0
00e0
ENDCHAR
STARTCHAR bracketright
ENCODING 93
SWIDTH 386 0
DWIDTH 7 0
BBX 5 16 0 -2
BITMAP
f8
f8
38
38
38
38
38
38
38
38
38
38
38
38
f8
f8
ENDCHAR
STARTCHAR asciicircum
ENCODING 94
SWIDTH 687 0
DWIDTH 13 0
BBX 9 10 2 2
BITMAP
0800
1c00
1c00
3600
3600
6300
6300
c180
c180
c180
ENDCHAR
STARTCHAR underscore
ENCODING 95
SWIDTH 500 0
DWIDTH 14 0
BBX 12 2 1 -2
BITMAP
fff0
fff0
ENDCHAR
STARTCHAR grave
ENCODING 96
SWIDTH 675 0
DWIDTH 13 0
BBX 5 2 4 11
BITMAP
f0
38
ENDCHAR
STARTCHAR a
ENCODING 97
SWIDTH 623 0
DWIDTH 12 0
BBX 10 10 1 0
BITMAP
3e00
7f00
6380
0380
1f80
7f80
e380
e380
ffc0
79c0
ENDCHAR
STARTCHAR b
ENCODING 98
SWIDTH 696 0
DWIDTH 13 0
BBX 10 14 2 0
BITMAP
e000
e000
e000
e000
ef00
ff80
f3c0
e1c0
e1c0
e1c0
e1c0
e380
ff80
de00
ENDCHAR
STARTCHAR c
ENCODING 99
SWIDTH 545 0
DWIDTH 11 0
BBX 9 10 1 0
BITMAP
1f00
7f80
7180
e000
e000
e000
e000
f180
7f80
1e00
ENDCHAR
STARTCHAR d
ENCODING 100
SWIDTH 696 0
DWIDTH 13 0
BBX 10 14 1 0
BITMAP
01c0
01c0
01c0
01c0
1dc0
7fc0
71c0
e1c0
e1c0
e1c0
e1c0
f3c0
7fc0
3cc0
ENDCHAR
STARTCHAR e
ENCODING 101
SWIDTH 614 0
DWIDTH 11 0
BBX 9 10 1 0
BITMAP
1e00
7f00
7380
e380
ff80
ff80
e000
f180
7f80
1f00
ENDCHAR
STARTCHAR f
ENCODING 102
SWIDTH 461 0
DWIDTH 8 0
BBX 7 14 1 0
BITMAP
1e
3e
70
70
fe
fe
70
70
70
70
70
70
70
70
ENDCHAR
STARTCHAR g
ENCODING 103
SWIDTH 696 0
DWIDTH 13 0
BBX 10 13 1 -3
BITMAP
1dc0
7fc0
71c0
e1c0
e1c0
e1c0
f3c0
7fc0
3dc0
01c0
61c0
7f80
3f00
ENDCHAR
STARTCHAR h
ENCODING 104
SWIDTH 693 0
DWIDTH 13 0
BBX 9 14 2 0
BITMAP
e000
e000
e000
e000
ef00
ff80
f380
e380
e380
e380
e380
e380
e380
e380
ENDCHAR
STARTCHAR i
ENCODING 105
SWIDTH 361 0
DWIDTH 7 0
BBX 3 14 2 0
BITMAP
e0
e0
00
00
e0
e0
e0
e0
e0
e0
e0
e0
e0
e0
ENDCHAR
STARTCHAR j
ENCODING 106
SWIDTH 361 0
DWIDTH 7 0
BBX 5 17 0 -3
BITMAP
38
38
00
00
38
38
38
38
38
38
38
38
38
38
30
f0
c0
ENDCHAR
STARTCHAR k
ENCODING 107
SWIDTH 681 0
DWIDTH 13 0
BBX 10 14 2 0
BITMAP
e000
e000
e000
e000
e180
e380
e700
ee00
fc00
fe00
ef00
e780
e3c0
e1c0
ENDCHAR
STARTCHAR l
ENCODING 108
SWIDTH 361 0
DWIDTH 7 0
BBX 3 14 2 0
BITMAP
e0
e0
e0
e0
e0
e0
e0
e0
e0
e0
e0
e0
e0
e0
ENDCHAR
STARTCHAR m
ENCODING 109
SWIDTH 1006 0
DWIDTH 19 0
BBX 15 10 2 0
BITMAP
cf3c
fffe
f3ce
e38e
e38e
e38e
e38e
e38e
e38e
e38e
ENDCHAR
STARTCHAR n
ENCODING 110
SWIDTH 693 0
DWIDTH 13 0
BBX 9 10 2 0
BITMAP
cf00
ff80
f380
e380
e380
e380
e380
e380
e380
e380
ENDCHAR
STARTCHAR o
ENCODING 111
SWIDTH 675 0
DWIDTH 13 0
BBX 11 10 1 0
BITMAP
1f00
7fc0
71c0
e0e0
e0e0
e0e0
e0e0
71c0
7fc0
1f00
ENDCHAR
STARTCHAR p
ENCODING 112
SWIDTH 696 0
DWIDTH 13 0
BBX 10 13 2 -3
BITMAP
cf00
ff80
f3c0
e1c0
e1c0
e1c0
e1c0
e380
ff80
ee00
e000
e000
e000
ENDCHAR
STARTCHAR q
ENCODING 113
SWIDTH 696 0
DWIDTH 13 0
BBX 10 13 1 -3
BITMAP
1dc0
7fc0
71c0
e1c0
e1c0
e1c0
e1c0
f3c0
7fc0
3dc0
01c0
01c0
01c0
ENDCHAR
STARTCHAR r
ENCODING 114
SWIDTH 500 0
DWIDTH 9 0
BBX 7 10 2 0
BITMAP
e6
ee
fe
f0
e0
e0
e0
e0
e0
e0
ENDCHAR
STARTCHAR s
ENCODING 115
SWIDTH 622 0
DWIDTH 11 0
BBX 9 10 1 0
BITMAP
3f00
7f80
e180
f000
7c00
1f00
0780
c380
ff00
7e00
ENDCHAR
STARTCHAR t
ENCODING 116
SWIDTH 436 0
DWIDTH 8 0
BBX 7 13 1 0
BITMAP
30
30
70
fe
fe
70
70
70
70
70
70
3e
1e
ENDCHAR
STARTCHAR u
ENCODING 117
SWIDTH 693 0
DWIDTH 13 0
BBX 9 10 2 0
BITMAP
e380
e380
e380
e380
e380
e380
e380
e780
ff80
7980
ENDCHAR
STARTCHAR v
ENCODING 118
SWIDTH 663 0
DWIDTH 12 0
BBX 10 10 1 0
BITMAP
e0c0
e0c0
e1c0
f180
7380
7b00
3f00
3e00
1c00
1c00
ENDCHAR
STARTCHAR w
ENCODING 119
SWIDTH 885 0
DWIDTH 16 0
BBX 14 10 1 0
BITMAP
e00c
e38c
e38c
e38c
f7d8
75d8
7df0
7cf0
38e0
38e0
ENDCHAR
STARTCHAR x
ENCODING 120
SWIDTH 568 0
DWIDTH 11 0
BBX 9 10 1 0
BITMAP
e180
e380
7300
7600
3c00
3e00
7700
6700
e380
c380
ENDCHAR
STARTCHAR y
ENCODING 121
SWIDTH 645 0
DWIDTH 12 0
BBX 10 13 1 -3
BITMAP
e0c0
e0c0
e1c0
7180
7380
3b00
3f00
1e00
1e00
0c00
1c00
3800
3800
ENDCHAR
STARTCHAR z
ENCODING 122
SWIDTH 608 0
DWIDTH 11 0
BBX 9 10 1 0
BITMAP
ff80
ff80
0780
0f00
1e00
3c00
7800
f000
ff80
ff80
ENDCHAR
STARTCHAR braceleft
ENCODING 123
SWIDTH 386 0
DWIDTH 7 0
BBX 5 16 2 -2
BITMAP
78
f8
e0
e0
70
30
30
e0
f0
30
30
60
e0
e0
f8
78
ENDCHAR
STARTCHAR bar
ENCODING 124
SWIDTH 265 0
DWIDTH 6 0
BBX 2 16 2 -2
BITMAP
c0
c0
c0
c0
c0
c0
c0
c0
c0
c0
c0
c0
c0
c0
c0
c0
ENDCHAR
STARTCHAR braceright
ENCODING 125
SWIDTH 386 0
DWIDTH 7 0
BBX 5 16 0 -2
BITMAP
f0
f8
38
38
70
60
60
38
78
60
60
30
38
38
f8
f0
ENDCHAR
STARTCHAR asciitilde
ENCODING 126
SWIDTH 687 0
DWIDTH 13 0
BBX 10 3 2 5
BITMAP
7cc0
ffc0
cf80
ENDCHAR
STARTCHAR nobreakspace
ENCODING 160
SWIDTH 343 0
DWIDTH 5 0
BBX 1 1 0 0
BITMAP
00
ENDCHAR
STARTCHAR Aogonek
ENCODING 161
SWIDTH 773 0
DWIDTH 14 0
BBX 13 16 1 -3
BITMAP
0700
0700
0f80
0f80
19c0
19c0
30e0
3fe0
7ff0
7070
6070
e038
e038
0300
0600
0380
ENDCHAR
STARTCHAR breve
ENCODING 162
SWIDTH 675 0
DWIDTH 13 0
BBX 6 3 3 11
BITMAP
84
fc
78
ENDCHAR
STARTCHAR Lstroke
ENCODING 163
SWIDTH 620 0
DWIDTH 12 0
BBX 12 13 0 0
BITMAP
1c00
1c00
1c00
1d80
1f80
3e00
fc00
dc00
1c00
1c00
1c00
1ff0
1ff0
ENDCHAR
STARTCHAR currency
ENCODING 164
SWIDTH 687 0
DWIDTH 13 0
BBX 12 11 1 1
BITMAP
c030
6060
1f80
3fc0
39c0
39c0
39c0
3fc0
1f80
6060
c030
ENDCHAR
STARTCHAR Lcaron
ENCODING 165
SWIDTH 620 0
DWIDTH 11 0
BBX 9 14 2 0
BITMAP
0e00
ee00
ee00
e600
ec00
e000
e000
e000
e000
e000
e000
e000
ff80
ff80
ENDCHAR
STARTCHAR Sacute
ENCODING 166
SWIDTH 594 0
DWIDTH 11 0
BBX 9 16 1 0
BITMAP
0f00
1c00
0000
3f00
7f80
e180
e000
f800
fe00
7f00
1f80
0780
0380
c380
ff00
7e00
ENDCHAR
STARTCHAR section
ENCODING 167
SWIDTH 693 0
DWIDTH 13 0
BBX 9 15 2 -2
BITMAP
3f00
7f80
e180
f000
7c00
df00
c780
e380
f180
7d80
1f00
0780
c380
ff00
7e00
ENDCHAR
STARTCHAR diaeresis
ENCODING 168
SWIDTH 675 0
DWIDTH 13 0
BBX 6 2 4 11
BITMAP
cc
cc
ENDCHAR
STARTCHAR Scaron
ENCODING 169
SWIDTH 594 0
DWIDTH 11 0
BBX 9 16 1 0
BITMAP
3600
1c00
0000
3f00
7f80
e180
e000
f800
fe00
7f00
1f80
0780
0380
c380
ff00
7e00
ENDCHAR
STARTCHAR Scedilla
ENCODING 170
SWIDTH 594 0
DWIDTH 11 0
BBX 9 16 1 -3
BITMAP
3f00
7f80
e180
e000
f800
fe00
7f00
1f80
0780
0380
c380
ff00
7e00
0c00
0600
1c00
ENDCHAR
STARTCHAR Tcaron
ENCODING 171
SWIDTH 735 0
DWIDTH 14 0
BBX 13 16 1 0
BITMAP
0d80
0700
0000
fff8
fff8
0700
0700
0700
0700
0700
0700
0700
0700
0700
0700
0700
ENDCHAR
STARTCHAR Zacute
ENCODING 172
SWIDTH 675 0
DWIDTH 12 0
BBX 10 16 1 0
BITMAP
0f00
1c00
0000
ffc0
ffc0
03c0
0780
0f00
0f00
1e00
3c00
3c00
7800
f000
ffc0
ffc0
ENDCHAR
STARTCHAR hyphen
ENCODING 173
SWIDTH 289 0
DWIDTH 5 0
BBX 4 2 1 5
BITMAP
f0
f0
ENDCHAR
STARTCHAR Zcaron
ENCODING 174
SWIDTH 675 0
DWIDTH 12 0
BBX 10 16 1 0
BITMAP
3600
1c00
0000
ffc0
ffc0
03c0
0780
0f00
0f00
1e00
3c00
3c00
7800
f000
ffc0
ffc0
ENDCHAR
STARTCHAR Zabovedot
ENCODING 175
SWIDTH 675 0
DWIDTH 12 0
BBX 10 16 1 0
BITMAP
1c00
1c00
0000
ffc0
ffc0
03c0
0780
0f00
0f00
1e00
3c00
3c00
7800
f000
ffc0
ffc0
ENDCHAR
STARTCHAR degree
ENCODING 176
SWIDTH 241 0
DWIDTH 5 0
BBX 5 4 0 9
BITMAP
70
d8
d8
70
ENDCHAR
STARTCHAR aogonek
ENCODING 177
SWIDTH 623 0
DWIDTH 12 0
BBX 10 13 1 -3
BITMAP
3e00
7f00
6380
0380
1f80
7f80
e380
e380
ffc0
79c0
0c00
1800
0e00
ENDCHAR
STARTCHAR ogonek
ENCODING 178
SWIDTH 675 0
DWIDTH 13 0
BBX 4 3 5 -3
BITMAP
60
c0
70
ENDCHAR
STARTCHAR lstroke
ENCODING 179
SWIDTH 361 0
DWIDTH 7 0
BBX 7 14 0 0
BITMAP
38
38
38
38
3e
3e
f8
f8
38
38
38
38
38
38
ENDCHAR
STARTCHAR acute
ENCODING 180
SWIDTH 675 0
DWIDTH 13 0
BBX 5 2 4 11
BITMAP
78
e0
ENDCHAR
STARTCHAR lcaron
ENCODING 181
SWIDTH 611 0
DWIDTH 11 0
BBX 7 15 2 0
BITMAP
0e
ee
ee
e6
ec
e0
e0
e0
e0
e0
e0
e0
e0
e0
e0
ENDCHAR
STARTCHAR sacute
ENCODING 182
SWIDTH 622 0
DWIDTH 11 0
BBX 9 13 1 0
BITMAP
0f00
1c00
0000
3f00
7f80
e180
f000
7c00
1f00
0780
c380
ff00
7e00
ENDCHAR
STARTCHAR caron
ENCODING 183
SWIDTH 675 0
DWIDTH 13 0
BBX 5 2 4 11
BITMAP
d8
70
ENDCHAR
STARTCHAR cedilla
ENCODING 184
SWIDTH 675 0
DWIDTH 13 0
BBX 4 3 5 -3
BITMAP
60
30
e0
ENDCHAR
STARTCHAR scaron
ENCODING 185
SWIDTH 622 0
DWIDTH 11 0
BBX 9 13 1 0
BITMAP
3600
1c00
0000
3f00
7f80
e180
f000
7c00
1f00
0780
c380
ff00
7e00
ENDCHAR
STARTCHAR scedilla
ENCODING 186
SWIDTH 622 0
DWIDTH 11 0
BBX 9 13 1 -3
BITMAP
3f00
7f80
e180
f000
7c00
1f00
0780
c380
ff00
7e00
0c00
0600
1c00
ENDCHAR
STARTCHAR tcaron
ENCODING 187
SWIDTH 500 0
DWIDTH 9 0
BBX 8 16 1 0
BITMAP
07
07
07
33
36
70
fe
fe
70
70
70
70
70
70
3e
1e
ENDCHAR
STARTCHAR zacute
ENCODING 188
SWIDTH 608 0
DWIDTH 11 0
BBX 9 13 1 0
BITMAP
0f00
1c00
0000
ff80
ff80
0780
0f00
1e00
3c00
7800
f000
ff80
ff80
ENDCHAR
STARTCHAR doubleacute
ENCODING 189
SWIDTH 675 0
DWIDTH 13 0
BBX 5 3 4 11
BITMAP
48
d8
90
ENDCHAR
STARTCHAR zcaron
ENCODING 190
SWIDTH 608 0
DWIDTH 11 0
BBX 9 13 1 0
BITMAP
3600
1c00
0000
ff80
ff80
0780
0f00
1e00
3c00
7800
f000
ff80
ff80
ENDCHAR
STARTCHAR zabovedot
ENCODING 191
SWIDTH 608 0
DWIDTH 11 0
BBX 9 13 1 0
BITMAP
1c00
1c00
0000
ff80
ff80
0780
0f00
1e00
3c00
7800
f000
ff80
ff80
ENDCHAR
STARTCHAR Racute
ENCODING 192
SWIDTH 734 0
DWIDTH 13 0
BBX 10 16 2 0
BITMAP
0f00
1c00
0000
ff00
ff80
e3c0
e1c0
e1c0
e380
fe00
ff00
e700
e380
e3c0
e1c0
e1c0
ENDCHAR
STARTCHAR Aacute
ENCODING 193
SWIDTH 773 0
DWIDTH 14 0
BBX 13 16 1 0
BITMAP
0780
0e00
0000
0700
0700
0f80
0f80
19c0
19c0
30e0
3fe0
7ff0
7070
6070
e038
e038
ENDCHAR
STARTCHAR Acircumflex
ENCODING 194
SWIDTH 773 0
DWIDTH 14 0
BBX 13 16 1 0
BITMAP
0700
0d80
0000
0700
0700
0f80
0f80
19c0
19c0
30e0
3fe0
7ff0
7070
6070
e038
e038
ENDCHAR
STARTCHAR Abreve
ENCODING 195
SWIDTH 773 0
DWIDTH 14 0
BBX 13 17 1 0
BITMAP
0840
0fc0
0780
0000
0700
0700
0f80
0f80
19c0
19c0
30e0
3fe0
7ff0
7070
6070
e038
e038
ENDCHAR
STARTCHAR Adiaeresis
ENCODING 196
SWIDTH 773 0
DWIDTH 14 0
BBX 13 16 1 0
BITMAP
1980
1980
0000
0700
0700
0f80
0f80
19c0
19c0
30e0
3fe0
7ff0
7070
6070
e038
e038
ENDCHAR
STARTCHAR Lacute
ENCODING 197
SWIDTH 620 0
DWIDTH 11 0
BBX 9 16 2 0
BITMAP
7800
e000
0000
e000
e000
e000
e000
e000
e000
e000
e000
e000
e000
e000
ff80
ff80
ENDCHAR
STARTCHAR Cacute
ENCODING 198
SWIDTH 726 0
DWIDTH 14 0
BBX 12 16 1 0
BITMAP
03c0
0700
0000
0fe0
3ff0
7830
7000
e000
e000
e000
e000
f000
7000
7c30
3ff0
0fc0
ENDCHAR
STARTCHAR Ccedilla
ENCODING 199
SWIDTH 726 0
DWIDTH 14 0
BBX 12 16 1 -3
BITMAP
0fe0
3ff0
7830
7000
e000
e000
e000
e000
f000
7000
7c30
3ff0
0fc0
0700
0380
0f00
ENDCHAR
STARTCHAR Ccaron
ENCODING 200
SWIDTH 726 0
DWIDTH 14 0
BBX 12 16 1 0
BITMAP
0d80
0700
0000
0fe0
3ff0
7830
7000
e000
e000
e000
e000
f000
7000
7c30
3ff0
0fc0
ENDCHAR
STARTCHAR Eacute
ENCODING 201
SWIDTH 645 0
DWIDTH 12 0
BBX 9 16 2 0
BITMAP
0f00
1c00
0000
ff80
ff80
e000
e000
e000
ff00
ff00
e000
e000
e000
e000
ff80
ff80
ENDCHAR
STARTCHAR Eogonek
ENCODING 202
SWIDTH 645 0
DWIDTH 12 0
BBX 9 16 2 -3
BITMAP
ff80
ff80
e000
e000
e000
ff00
ff00
e000
e000
e000
e000
ff80
ff80
0c00
1800
0e00
ENDCHAR
STARTCHAR Ediaeresis
ENCODING 203
SWIDTH 645 0
DWIDTH 12 0
BBX 9 16 2 0
BITMAP
3300
3300
0000
ff80
ff80
e000
e000
e000
ff00
ff00
e000
e000
e000
e000
ff80
ff80
ENDCHAR
STARTCHAR Ecaron
ENCODING 204
SWIDTH 645 0
DWIDTH 12 0
BBX 9 16 2 0
BITMAP
3600
1c00
0000
ff80
ff80
e000
e000
e000
ff00
ff00
e000
e000
e000
e000
ff80
ff80
ENDCHAR
STARTCHAR Iacute
ENCODING 205
SWIDTH 361 0
DWIDTH 7 0
BBX 5 16 1 0
BITMAP
78
e0
00
70
70
70
70
70
70
70
70
70
70
70
70
70
ENDCHAR
STARTCHAR Icircumflex
ENCODING 206
SWIDTH 361 0
DWIDTH 7 0
BBX 5 16 1 0
BITMAP
70
d8
00
70
70
70
70
70
70
70
70
70
70
70
70
70
ENDCHAR
STARTCHAR Dcaron
ENCODING 207
SWIDTH 819 0
DWIDTH 15 0
BBX 12 16 2 0
BITMAP
1b00
0e00
0000
ff00
ffc0
e1e0
e0e0
e070
e070
e070
e070
e070
e0e0
e1e0
ffc0
ff00
ENDCHAR
STARTCHAR Dstroke
ENCODING 208
SWIDTH 819 0
DWIDTH 15 0
BBX 14 13 0 0
BITMAP
3fc0
3ff0
3878
3838
381c
ff9c
ff9c
381c
381c
3838
3878
3ff0
3fc0
ENDCHAR
STARTCHAR Nacute
ENCODING 209
SWIDTH 783 0
DWIDTH 14 0
BBX 10 16 2 0
BITMAP
0f00
1c00
0000
e0c0
e0c0
f0c0
f8c0
f8c0
dcc0
cec0
cec0
c7c0
c3c0
c3c0
c1c0
c0c0
ENDCHAR
STARTCHAR Ncaron
ENCODING 210
SWIDTH 783 0
DWIDTH 14 0
BBX 10 16 2 0
BITMAP
3600
1c00
0000
e0c0
e0c0
f0c0
f8c0
f8c0
dcc0
cec0
cec0
c7c0
c3c0
c3c0
c1c0
c0c0
ENDCHAR
STARTCHAR Oacute
ENCODING 211
SWIDTH 855 0
DWIDTH 16 0
BBX 14 16 1 0
BITMAP
03c0
0700
0000
0fc0
3ff0
7878
7038
e01c
e01c
e01c
e01c
e01c
7038
7878
3ff0
0fc0
ENDCHAR
STARTCHAR Ocircumflex
ENCODING 212
SWIDTH 855 0
DWIDTH 16 0
BBX 14 16 1 0
BITMAP
0380
06c0
0000
0fc0
3ff0
7878
7038
e01c
e01c
e01c
e01c
e01c
7038
7878
3ff0
0fc0
ENDCHAR
STARTCHAR Odoubleacute
ENCODING 213
SWIDTH 855 0
DWIDTH 16 0
BBX 14 17 1 0
BITMAP
0240
06c0
0480
0000
0fc0
3ff0
7878
7038
e01c
e01c
e01c
e01c
e01c
7038
7878
3ff0
0fc0
ENDCHAR
STARTCHAR Odiaeresis
ENCODING 214
SWIDTH 855 0
DWIDTH 16 0
BBX 14 16 1 0
BITMAP
0cc0
0cc0
0000
0fc0
3ff0
7878
7038
e01c
e01c
e01c
e01c
e01c
7038
7878
3ff0
0fc0
ENDCHAR
STARTCHAR multiply
ENCODING 215
SWIDTH 687 0
DWIDTH 13 0
BBX 10 10 2 1
BITMAP
4080
e1c0
7380
3b00
0e00
1c00
3700
7380
e1c0
4080
ENDCHAR
STARTCHAR Rcaron
ENCODING 216
SWIDTH 734 0
DWIDTH 13 0
BBX 10 16 2 0
BITMAP
3600
1c00
0000
ff00
ff80
e3c0
e1c0
e1c0
e380
fe00
ff00
e700
e380
e3c0
e1c0
e1c0
ENDCHAR
STARTCHAR Uring
ENCODING 217
SWIDTH 783 0
DWIDTH 15 0
BBX 11 17 2 0
BITMAP
0e00
1300
0e00
0000
e0e0
e0e0
e0e0
e0e0
e0e0
e0e0
e0e0
e0e0
e0e0
e0e0
71c0
7fc0
1f00
ENDCHAR
STARTCHAR Uacute
ENCODING 218
SWIDTH 783 0
DWIDTH 15 0
BBX 11 16 2 0
BITMAP
0780
0e00
0000
e0e0
e0e0
e0e0
e0e0
e0e0
e0e0
e0e0
e0e0
e0e0
e0e0
71c0
7fc0
1f00
ENDCHAR
STARTCHAR Udoubleacute
ENCODING 219
SWIDTH 783 0
DWIDTH 15 0
BBX 11 17 2 0
BITMAP
0480
0d80
0900
0000
e0e0
e0e0
e0e0
e0e0
e0e0
e0e0
e0e0
e0e0
e0e0
e0e0
71c0
7fc0
1f00
ENDCHAR
STARTCHAR Udiaeresis
ENCODING 220
SWIDTH 783 0
DWIDTH 15 0
BBX 11 16 2 0
BITMAP
1980
1980
0000
e0e0
e0e0
e0e0
e0e0
e0e0
e0e0
e0e0
e0e0
e0e0
e0e0
71c0
7fc0
1f00
ENDCHAR
STARTCHAR Yacute
ENCODING 221
SWIDTH 738 0
DWIDTH 13 0
BBX 11 16 1 0
BITMAP
0780
0e00
0000
e0e0
e0e0
70c0
71c0
3980
3980
1f00
0e00
0e00
0e00
0e00
0e00
0e00
ENDCHAR
STARTCHAR Tcedilla
ENCODING 222
SWIDTH 735 0
DWIDTH 14 0
BBX 13 16 1 -3
BITMAP
fff8
fff8
0700
0700
0700
0700
0700
0700
0700
0700
0700
0700
0700
0300
0180
0700
ENDCHAR
STARTCHAR ssharp
ENCODING 223
SWIDTH 724 0
DWIDTH 13 0
BBX 10 14 2 0
BITMAP
1e00
7f00
e380
e380
e700
ee00
ee00
ef00
e780
e3c0
e1c0
e1c0
e7c0
e780
ENDCHAR
STARTCHAR racute
ENCODING 224
SWIDTH 500 0
DWIDTH 9 0
BBX 7 13 2 0
BITMAP
1e
38
00
e6
ee
fe
f0
e0
e0
e0
e0
e0
e0
ENDCHAR
STARTCHAR aacute
ENCODING 225
SWIDTH 623 0
DWIDTH 12 0
BBX 10 13 1 0
BITMAP
0f00
1c00
0000
3e00
7f00
6380
0380
1f80
7f80
e380
e380
ffc0
79c0
ENDCHAR
STARTCHAR acircumflex
ENCODING 226
SWIDTH 623 0
DWIDTH 12 0
BBX 10 13 1 0
BITMAP
1c00
3600
0000
3e00
7f00
6380
0380
1f80
7f80
e380
e380
ffc0
79c0
ENDCHAR
STARTCHAR abreve
ENCODING 227
SWIDTH 623 0
DWIDTH 12 0
BBX 10 14 1 0
BITMAP
2100
3f00
1e00
0000
3e00
7f00
6380
0380
1f80
7f80
e380
e380
ffc0
79c0
ENDCHAR
STARTCHAR adiaeresis
ENCODING 228
SWIDTH 623 0
DWIDTH 12 0
BBX 10 13 1 0
BITMAP
3300
3300
0000
3e00
7f00
6380
0380
1f80
7f80
e380
e380
ffc0
79c0
ENDCHAR
STARTCHAR lacute
ENCODING 229
SWIDTH 361 0
DWIDTH 7 0
BBX 5 17 2 0
BITMAP
78
e0
00
e0
e0
e0
e0
e0
e0
e0
e0
e0
e0
e0
e0
e0
e0
ENDCHAR
STARTCHAR cacute
ENCODING 230
SWIDTH 545 0
DWIDTH 11 0
BBX 9 13 1 0
BITMAP
0f00
1c00
0000
1f00
7f80
7180
e000
e000
e000
e000
f180
7f80
1e00
ENDCHAR
STARTCHAR ccedilla
ENCODING 231
SWIDTH 545 0
DWIDTH 11 0
BBX 9 13 1 -3
BITMAP
1f00
7f80
7180
e000
e000
e000
e000
f180
7f80
1e00
0c00
0600
1c00
ENDCHAR
STARTCHAR ccaron
ENCODING 232
SWIDTH 545 0
DWIDTH 11 0
BBX 9 13 1 0
BITMAP
3600
1c00
0000
1f00
7f80
7180
e000
e000
e000
e000
f180
7f80
1e00
ENDCHAR
STARTCHAR eacute
ENCODING 233
SWIDTH 614 0
DWIDTH 11 0
BBX 9 13 1 0
BITMAP
0f00
1c00
0000
1e00
7f00
7380
e380
ff80
ff80
e000
f180
7f80
1f00
ENDCHAR
STARTCHAR eogonek
ENCODING 234
SWIDTH 614 0
DWIDTH 11 0
BBX 9 13 1 -3
BITMAP
1e00
7f00
7380
e380
ff80
ff80
e000
f180
7f80
1f00
0c00
1800
0e00
ENDCHAR
STARTCHAR ediaeresis
ENCODING 235
SWIDTH 614 0
DWIDTH 11 0
BBX 9 13 1 0
BITMAP
3300
3300
0000
1e00
7f00
7380
e380
ff80
ff80
e000
f180
7f80
1f00
ENDCHAR
STARTCHAR ecaron
ENCODING 236
SWIDTH 614 0
DWIDTH 11 0
BBX 9 13 1 0
BITMAP
3600
1c00
0000
1e00
7f00
7380
e380
ff80
ff80
e000
f180
7f80
1f00
ENDCHAR
STARTCHAR iacute
ENCODING 237
SWIDTH 361 0
DWIDTH 7 0
BBX 5 13 1 0
BITMAP
78
e0
00
70
70
70
70
70
70
70
70
70
70
ENDCHAR
STARTCHAR icircumflex
ENCODING 238
SWIDTH 361 0
DWIDTH 7 0
BBX 5 13 1 0
BITMAP
70
d8
00
70
70
70
70
70
70
70
70
70
70
ENDCHAR
STARTCHAR dcaron
ENCODING 239
SWIDTH 944 0
DWIDTH 17 0
BBX 14 15 1 0
BITMAP
001c
01dc
01dc
01cc
01d8
1dc0
7fc0
71c0
e1c0
e1c0
e1c0
e1c0
f3c0
7fc0
3cc0
ENDCHAR
STARTCHAR dstroke
ENCODING 240
SWIDTH 888 0
DWIDTH 16 0
BBX 13 14 1 0
BITMAP
01c0
0ff8
01c0
01c0
1dc0
7fc0
71c0
e1c0
e1c0
e1c0
e1c0
f3c0
7fc0
3cc0
ENDCHAR
STARTCHAR nacute
ENCODING 241
SWIDTH 693 0
DWIDTH 13 0
BBX 9 13 2 0
BITMAP
0f00
1c00
0000
cf00
ff80
f380
e380
e380
e380
e380
e380
e380
e380
ENDCHAR
STARTCHAR ncaron
ENCODING 242
SWIDTH 693 0
DWIDTH 13 0
BBX 9 13 2 0
BITMAP
3600
1c00
0000
cf00
ff80
f380
e380
e380
e380
e380
e380
e380
e380
ENDCHAR
STARTCHAR oacute
ENCODING 243
SWIDTH 675 0
DWIDTH 13 0
BBX 11 13 1 0
BITMAP
0780
0e00
0000
1f00
7fc0
71c0
e0e0
e0e0
e0e0
e0e0
71c0
7fc0
1f00
ENDCHAR
STARTCHAR ocircumflex
ENCODING 244
SWIDTH 675 0
DWIDTH 13 0
BBX 11 13 1 0
BITMAP
0e00
1b00
0000
1f00
7fc0
71c0
e0e0
e0e0
e0e0
e0e0
71c0
7fc0
1f00
ENDCHAR
STARTCHAR odoubleacute
ENCODING 245
SWIDTH 675 0
DWIDTH 13 0
BBX 11 14 1 0
BITMAP
0480
0d80
0900
0000
1f00
7fc0
71c0
e0e0
e0e0
e0e0
e0e0
71c0
7fc0
1f00
ENDCHAR
STARTCHAR odiaeresis
ENCODING 246
SWIDTH 675 0
DWIDTH 13 0
BBX 11 13 1 0
BITMAP
1980
1980
0000
1f00
7fc0
71c0
e0e0
e0e0
e0e0
e0e0
71c0
7fc0
1f00
ENDCHAR
STARTCHAR division
ENCODING 247
SWIDTH 687 0
DWIDTH 13 0
BBX 10 10 2 1
BITMAP
0c00
0c00
0000
0000
ffc0
ffc0
0000
0000
0c00
0c00
ENDCHAR
STARTCHAR rcaron
ENCODING 248
SWIDTH 500 0
DWIDTH 9 0
BBX 7 13 2 0
BITMAP
6c
38
00
e6
ee
fe
f0
e0
e0
e0
e0
e0
e0
ENDCHAR
STARTCHAR uring
ENCODING 249
SWIDTH 693 0
DWIDTH 13 0
BBX 9 14 2 0
BITMAP
1c00
2600
1c00
0000
e380
e380
e380
e380
e380
e380
e380
e780
ff80
7980
ENDCHAR
STARTCHAR uacute
ENCODING 250
SWIDTH 693 0
DWIDTH 13 0
BBX 9 13 2 0
BITMAP
0f00
1c00
0000
e380
e380
e380
e380
e380
e380
e380
e780
ff80
7980
ENDCHAR
STARTCHAR udoubleacute
ENCODING 251
SWIDTH 693 0
DWIDTH 13 0
BBX 9 14 2 0
BITMAP
0900
1b00
1200
0000
e380
e380
e380
e380
e380
e380
e380
e780
ff80
7980
ENDCHAR
STARTCHAR udiaeresis
ENCODING 252
SWIDTH 693 0
DWIDTH 13 0
BBX 9 13 2 0
BITMAP
3300
3300
0000
e380
e380
e380
e380
e380
e380
e380
e780
ff80
7980
ENDCHAR
STARTCHAR yacute
ENCODING 253
SWIDTH 645 0
DWIDTH 12 0
BBX 10 16 1 -3
BITMAP
0f00
1c00
0000
e0c0
e0c0
e1c0
7180
7380
3b00
3f00
1e00
1e00
0c00
1c00
3800
3800
ENDCHAR
STARTCHAR tcedilla
ENCODING 254
SWIDTH 436 0
DWIDTH 8 0
BBX 7 16 1 -3
BITMAP
30
30
70
fe
fe
70
70
70
70
70
70
3e
1e
18
0c
38
ENDCHAR
STARTCHAR abovedot
ENCODING 255
SWIDTH 675 0
DWIDTH 13 0
BBX 3 2 5 11
BITMAP
e0
e0
ENDCHAR
ENDFONT
